<svg width="81" height="81" viewBox="0 0 81 81" fill="none" xmlns="http://www.w3.org/2000/svg">
<g clip-path="url(#clip0)">
<rect width="81" height="81" rx="40.5" fill="#2C2A7A"/>
<rect width="81" height="81" rx="40.5" fill="url(#paint0_linear)"/>
<path fill-rule="evenodd" clip-rule="evenodd" d="M69.55 41.2558C69.55 57.2858 56.5551 70.2808 40.525 70.2808C32.9314 70.2808 26.0188 67.3647 20.8462 62.5912V87.3462H11.5V40.6154H11.5069C11.8475 24.881 24.7089 12.2308 40.525 12.2308C56.5551 12.2308 69.55 25.2257 69.55 41.2558ZM43.6255 61.7308C53.4241 60.1663 60.9119 51.6759 60.9119 41.4367C60.9119 30.0861 51.7104 20.8846 40.3598 20.8846C29.0092 20.8846 19.8077 30.0861 19.8077 41.4367C19.8077 51.6759 27.2955 60.1663 37.0941 61.7308V31.589C32.945 32.949 29.9531 36.847 29.9531 41.4367H23.4217C23.4217 32.1012 31.0003 24.5422 40.338 24.5422C49.6757 24.5422 57.2543 32.1012 57.2543 41.4367H50.7229C50.7229 36.8631 47.7519 32.9764 43.6255 31.6034V61.7308Z" fill="white"/>
</g>
<rect width="81" height="81" rx="40.5"/>
<defs>
<linearGradient id="paint0_linear" x1="-27.675" y1="16.2" x2="137.7" y2="74.25" gradientUnits="userSpaceOnUse">
<stop stop-color="#4F0051"/>
<stop offset="0.447006" stop-color="#34103C" stop-opacity="0"/>
<stop offset="1" stop-color="#1E1E2A"/>
</linearGradient>
<clipPath id="clip0">
<rect width="81" height="81" rx="40.5" fill="white"/>
</clipPath>
</defs>
</svg>
